<svg width="63" height="62" viewBox="0 0 63 62" fill="none" xmlns="http://www.w3.org/2000/svg">
<g clip-path="url(#clip0_18_94)">
<path d="M2 43V35C2 32.2386 4.23858 30 7 30C9.76142 30 12 32.2386 12 35V43C12 47.4183 14.5817 50 19 50C23.4183 50 26 47.4183 26 43V21C26 18.2386 28.2386 16 31 16C33.7614 16 36 18.2386 36 21V43C36 52.9411 28.9411 60 19 60C9.05888 60 2 52.9411 2 43Z" fill="#166451" fill-opacity="0.6"/>
<path d="M31 15.25C34.1756 15.25 36.75 17.8244 36.75 21V43C36.75 53.3553 29.3553 60.75 19 60.75C8.64466 60.75 1.25 53.3553 1.25 43V35C1.25 31.8244 3.82436 29.25 7 29.25C10.1756 29.25 12.75 31.8244 12.75 35V43C12.75 45.0638 13.3498 46.6037 14.373 47.627C15.3963 48.6502 16.9362 49.25 19 49.25C21.0638 49.25 22.6037 48.6502 23.627 47.627C24.6502 46.6037 25.25 45.0638 25.25 43V21C25.25 17.8244 27.8244 15.25 31 15.25Z" stroke="#166451" stroke-opacity="0.6" stroke-width="1.5" stroke-linecap="round" stroke-linejoin="round"/>
<path d="M26 43.3027C26 40.5413 28.2386 38.3027 31 38.3027C33.7614 38.3027 36 40.5413 36 43.3027C36.0002 47.2697 38.5127 50 43.5 50C48.4873 50 50.9998 47.2697 51 43.3027V33C51 30.2386 53.2386 28 56 28C58.7614 28 61 30.2386 61 33V43.3027C60.9998 53.3609 53.4241 60 43.5 60C33.5759 60 26.0002 53.3609 26 43.3027Z" fill="#166451" fill-opacity="0.6"/>
<path d="M56 27.25C59.1756 27.25 61.75 29.8244 61.75 33V43.3027L61.7441 43.79C61.6252 48.8023 59.6735 53.0029 56.4824 55.9727C53.1937 59.0331 48.6293 60.75 43.5 60.75C38.3707 60.75 33.8063 59.0331 30.5176 55.9727C27.2236 52.9072 25.2501 48.5302 25.25 43.3027C25.25 40.1271 27.8244 37.5527 31 37.5527C34.1756 37.5527 36.75 40.1271 36.75 43.3027L36.7568 43.6396C36.8237 45.3054 37.3898 46.6475 38.3936 47.5928C39.469 48.6054 41.1397 49.25 43.5 49.25C45.8603 49.25 47.531 48.6054 48.6064 47.5928C49.677 46.5846 50.2499 45.1249 50.25 43.3027V33C50.25 29.8244 52.8244 27.25 56 27.25Z" stroke="#166451" stroke-opacity="0.6" stroke-width="1.5" stroke-linecap="round" stroke-linejoin="round"/>
<path d="M13 20C13 23.3137 10.3137 26 7 26C3.68629 26 1 23.3137 1 20C1 16.6863 3.68629 14 7 14C10.3137 14 13 16.6863 13 20Z" fill="#7A5CB2"/>
<path d="M37 6C37 9.31371 34.3137 12 31 12C27.6863 12 25 9.31371 25 6C25 2.68629 27.6863 0 31 0C34.3137 0 37 2.68629 37 6Z" fill="#DB9A4B"/>
<path d="M62 18C62 21.3137 59.3137 24 56 24C52.6863 24 50 21.3137 50 18C50 14.6863 52.6863 12 56 12C59.3137 12 62 14.6863 62 18Z" fill="#BF696A"/>
</g>
<defs>
<clipPath id="clip0_18_94">
<rect width="63" height="62" fill="white"/>
</clipPath>
</defs>
</svg>
